<?xml version="1.0" encoding="UTF-8" standalone="no"?>
<!-- Created with Inkscape (http://www.inkscape.org/) -->

<svg
   width="200mm"
   height="200mm"
   viewBox="0 0 200 200"
   version="1.1"
   id="svg1"
   inkscape:version="1.4.2 (ebf0e940d0, 2025-05-08)"
   sodipodi:docname="logo-original.svg"
   xmlns:inkscape="http://www.inkscape.org/namespaces/inkscape"
   xmlns:sodipodi="http://sodipodi.sourceforge.net/DTD/sodipodi-0.dtd"
   xmlns="http://www.w3.org/2000/svg"
   xmlns:svg="http://www.w3.org/2000/svg">
  <sodipodi:namedview
     id="namedview1"
     pagecolor="#ffffff"
     bordercolor="#111111"
     borderopacity="1"
     inkscape:showpageshadow="0"
     inkscape:pageopacity="0"
     inkscape:pagecheckerboard="1"
     inkscape:deskcolor="#d1d1d1"
     inkscape:document-units="mm"
     inkscape:zoom="0.50442987"
     inkscape:cx="-54.516994"
     inkscape:cy="507.50365"
     inkscape:window-width="1920"
     inkscape:window-height="1131"
     inkscape:window-x="0"
     inkscape:window-y="0"
     inkscape:window-maximized="1"
     inkscape:current-layer="layer1" />
  <defs
     id="defs1" />
  <g
     inkscape:label="Layer 1"
     inkscape:groupmode="layer"
     id="layer1"
     transform="translate(-25.816317,-52.612617)">
    <g
       id="g6"
       inkscape:label="logo"
       transform="translate(15.202063,2.0833164)">
      <path
         style="baseline-shift:baseline;display:inline;overflow:visible;opacity:1;vector-effect:none;paint-order:stroke fill markers;enable-background:accumulate;stop-color:#000000;stop-opacity:1"
         d="M 110.61328,51.960937 25.251953,101.24609 v 98.56836 l 85.361327,49.28321 85.36328,-49.28321 v -98.56836 z m 0,12.302735 74.70899,43.132808 v 86.26563 l -74.70899,43.13476 -74.708983,-43.13476 v -86.26563 z"
         id="path1"
         transform="matrix(0.99338857,0,0,0.99338857,0.73131601,0.99521597)"
         inkscape:label="outer" />
      <path
         style="baseline-shift:baseline;display:inline;overflow:visible;opacity:1;vector-effect:none;fill:#b73629;stroke:#f43f2c;stroke-opacity:1;paint-order:stroke fill markers;enable-background:accumulate;stop-color:#000000;stop-opacity:1"
         d="m 110.64063,64.814453 -2.72071,1.542969 -0.0625,0.0332 -0.0156,0.0098 C 84.895099,79.642071 61.951107,92.89332 39.007812,106.13867 l -2.644531,1.52735 v 85.72656 l 2.644531,1.52734 c 22.985995,13.27108 45.972266,26.54093 68.958988,39.81055 l 2.64648,1.52734 2.64649,-1.52734 c 22.98736,-13.26962 45.97428,-26.53947 68.96093,-39.81055 l 2.64453,-1.52734 v -85.72656 l -2.64453,-1.52735 C 159.23523,92.867146 136.24827,79.59915 113.26367,66.328125 Z m -0.0234,12.205078 c 21.22191,12.25297 42.44485,24.503319 63.66601,36.755859 v 73.50781 c -21.22276,12.25262 -42.44639,24.5044 -63.66992,36.75586 C 89.390394,211.78762 68.16743,199.5358 46.945312,187.2832 V 113.77539 C 68.169831,101.52199 89.392308,89.268292 110.61719,77.019531 Z"
         id="path4" />
      <path
         id="path5"
         style="fill:#37342e;fill-opacity:1;stroke:#f43f2c;stroke-width:0.79375;stroke-dasharray:none;stroke-opacity:0.996078;paint-order:stroke fill markers"
         d="M 110.48828,77.382812 C 89.387674,89.557506 68.290107,101.74069 47.191406,113.91992 c 0,24.40625 0,48.8125 0,73.21875 21.140148,12.2046 42.280913,24.40814 63.421874,36.61133 21.14161,-12.20319 42.28303,-24.40673 63.42383,-36.61133 0,-24.40625 0,-48.8125 0,-73.21875 -21.13869,-12.20487 -42.27928,-24.40645 -63.41797,-36.611326 l -0.087,0.04933 z"
         inkscape:label="center" />
      <path
         style="fill:#f3b743;stroke-width:0.214694"
         d="m 89.118552,208.7506 c -1.289754,-0.86617 -1.241649,-1.14937 1.491272,-8.77948 0.944208,-2.63618 2.585702,-7.25664 3.647763,-10.26771 3.322498,-9.41973 7.506443,-21.15889 9.389903,-26.34582 0.99533,-2.74111 1.80969,-5.17518 1.80969,-5.40905 0,-0.23387 -0.23309,-0.69629 -0.51796,-1.0276 l -0.51797,-0.60238 -13.241544,-0.10734 -13.241544,-0.10735 -0.426037,-0.52634 c -0.324999,-0.40149 -0.392915,-0.70287 -0.286378,-1.27076 0.171829,-0.91594 2.043266,-4.67374 4.696268,-9.43001 2.536681,-4.54774 11.33523,-20.64072 14.520618,-26.55895 2.743535,-5.0973 7.790107,-14.34695 10.004687,-18.337207 1.68531,-3.036603 2.98498,-4.522527 4.29476,-4.910182 0.64861,-0.191968 4.0833,-0.261544 12.9115,-0.261544 11.14278,0 12.06048,0.02765 12.47183,0.375714 0.85827,0.726246 0.78444,1.309349 -0.41471,3.275552 -2.0506,3.362297 -16.35936,30.673397 -16.74546,31.961987 -0.24313,0.81156 -0.22728,0.95647 0.16174,1.47753 0.23724,0.31773 0.66415,0.64246 0.94871,0.72161 0.28456,0.0791 6.16919,0.0982 13.07695,0.0422 6.90776,-0.0559 12.98465,-0.0208 13.50422,0.0782 1.16522,0.22183 1.86856,1.0254 1.65217,1.88759 -0.0785,0.31286 -0.6963,1.16663 -1.37281,1.89725 -2.08652,2.2534 -4.1276,4.78698 -7.81553,9.70144 -7.74002,10.31419 -22.03461,29.49808 -23.03649,30.91587 -1.62785,2.30361 -12.56848,16.80795 -15.14171,20.07384 -1.25602,1.5941 -3.090523,4.05771 -4.076691,5.47469 -2.833265,4.07098 -3.809061,5.22148 -5.015535,5.91344 -1.326404,0.76077 -1.778793,0.78475 -2.731712,0.1448 z"
         id="path7"
         inkscape:label="bolt" />
    </g>
  </g>
</svg>
